<?xml version="1.0" encoding="UTF-8" standalone="no"?>
<!-- Created with Inkscape (http://www.inkscape.org/) -->

<svg
   xmlns:dc="http://purl.org/dc/elements/1.1/"
   xmlns:cc="http://creativecommons.org/ns#"
   xmlns:rdf="http://www.w3.org/1999/02/22-rdf-syntax-ns#"
   xmlns:svg="http://www.w3.org/2000/svg"
   xmlns="http://www.w3.org/2000/svg"
   xmlns:sodipodi="http://sodipodi.sourceforge.net/DTD/sodipodi-0.dtd"
   xmlns:inkscape="http://www.inkscape.org/namespaces/inkscape"
   sodipodi:docname="symbolic.svg"
   inkscape:export-filename="/home/sam/dev/RESOURCES/gnome-icon-theme-symbolic/src/gnome-stencils.png"
   inkscape:export-xdpi="90"
   inkscape:export-ydpi="90"
   height="16"
   id="svg7384"
   version="1.1"
   inkscape:version="0.92.2 (5c3e80d, 2017-08-06)"
   width="16">
  <metadata
     id="metadata90">
    <rdf:RDF>
      <cc:Work
         rdf:about="">
        <dc:format>image/svg+xml</dc:format>
        <dc:type
           rdf:resource="http://purl.org/dc/dcmitype/StillImage" />
        <dc:title>Gnome Symbolic Icon Theme</dc:title>
      </cc:Work>
    </rdf:RDF>
  </metadata>
  <sodipodi:namedview
     inkscape:bbox-nodes="false"
     inkscape:bbox-paths="true"
     bordercolor="#666666"
     borderopacity="1"
     inkscape:current-layer="layer9"
     inkscape:cx="8"
     inkscape:cy="7.5"
     gridtolerance="10"
     inkscape:guide-bbox="true"
     guidetolerance="10"
     id="namedview88"
     inkscape:object-nodes="true"
     inkscape:object-paths="true"
     objecttolerance="10"
     pagecolor="#3a3b39"
     inkscape:pageopacity="1"
     inkscape:pageshadow="2"
     showborder="true"
     showgrid="true"
     showguides="true"
     inkscape:snap-bbox="true"
     inkscape:snap-bbox-midpoints="false"
     inkscape:snap-global="true"
     inkscape:snap-grids="true"
     inkscape:snap-nodes="true"
     inkscape:snap-others="false"
     inkscape:snap-to-guides="true"
     inkscape:window-height="836"
     inkscape:window-maximized="1"
     inkscape:window-width="1600"
     inkscape:window-x="0"
     inkscape:window-y="27"
     inkscape:zoom="1.9180271"
     inkscape:snap-page="true"
     inkscape:snap-intersection-paths="true">
    <inkscape:grid
       dotted="false"
       empspacing="2"
       enabled="true"
       id="grid4866"
       originx="160"
       originy="-20"
       snapvisiblegridlinesonly="true"
       spacingx="1"
       spacingy="1"
       type="xygrid"
       visible="true" />
  </sodipodi:namedview>
  <title
     id="title9167">Gnome Symbolic Icon Theme</title>
  <defs
     id="defs7386">
    <clipPath
       clipPathUnits="userSpaceOnUse"
       id="clipPath4538">
      <path
         style="color:#000000;clip-rule:nonzero;display:inline;overflow:visible;visibility:visible;opacity:0.4;color-interpolation:sRGB;color-interpolation-filters:linearRGB;fill:#4075b8;fill-opacity:1;fill-rule:nonzero;stroke:none;stroke-width:0.97273529;stroke-linecap:round;stroke-linejoin:round;stroke-miterlimit:4;stroke-dasharray:none;stroke-dashoffset:0;stroke-opacity:1;marker:none;color-rendering:auto;image-rendering:auto;shape-rendering:auto;text-rendering:auto;enable-background:accumulate"
         d="m 111.99793,-162.00055 c -30.470092,0 -55.000163,23.32969 -55.000163,52.3145 v 225.37196 c 0,28.98481 24.530071,52.3145 55.000163,52.3145 h 55.00016 v 82.50024 l 82.50024,-82.50024 h 192.50056 c 30.47009,0 55.00016,-23.32969 55.00016,-52.3145 v -225.37196 c 0,-28.98481 -24.53007,-52.3145 -55.00016,-52.3145 z"
         id="path4540"
         inkscape:connector-curvature="0"
         sodipodi:nodetypes="sssscccsssss" />
    </clipPath>
  </defs>
  <g
     inkscape:groupmode="layer"
     id="layer9"
     inkscape:label="status"
     style="display:inline"
     transform="translate(-81.0002,-197)">
    <path
       inkscape:connector-curvature="0"
       style="color:#000000;clip-rule:nonzero;display:inline;overflow:visible;visibility:visible;opacity:1;color-interpolation:sRGB;color-interpolation-filters:linearRGB;fill:#bebebe;fill-opacity:1;fill-rule:nonzero;stroke:none;stroke-width:0.03537209;stroke-linecap:round;stroke-linejoin:round;stroke-miterlimit:4;stroke-dasharray:none;stroke-dashoffset:0;stroke-opacity:1;marker:none;color-rendering:auto;image-rendering:auto;shape-rendering:auto;text-rendering:auto;enable-background:accumulate"
       d="m 83.0002,198 c -1.108,0 -2,0.84835 -2,1.90234 v 8.19532 c 0,1.05399 0.892,1.90234 2,1.90234 h 2 v 3 l 3,-3 h 3.58008 3.41992 c 1.108,0 2,-0.84835 2,-1.90234 v -8.19532 c 0,-1.05399 -0.892,-1.90234 -2,-1.90234 h -6.10352 z m 3.53906,1 h 8.46094 c 0.554,0 1,0.446 1,1 v 8 c 0,0.554 -0.446,1 -1,1 h -2.35156 c 1.71036,-2.03437 2.06831,-5.14568 0.19922,-7.23633 -1.42766,-1.59675 -4.03826,-2.07491 -5.70118,-0.54687 -1.10643,1.01691 -1.4344,2.85828 -0.33789,4.00976 0.70707,0.74263 1.97403,0.95793 2.75,0.19141 0.48251,-0.47665 0.62134,-1.32064 0.0996,-1.82422 -0.3105,-0.29983 -0.85571,-0.38385 -1.16992,-0.041 -0.17871,0.19383 -0.22663,0.52915 -0.01,0.71485 0.11505,0.0982 0.31293,0.12453 0.41601,-0.006 0.0506,-0.0639 0.0632,-0.1739 -0.0117,-0.22656 -0.0337,-0.0233 -0.087,-0.027 -0.11133,0.0117 -0.007,0.015 -0.009,0.0391 0.01,0.0488 0.007,0.004 0.0195,0.004 0.0195,-0.004 v -0.004 -0.002 c -0.01,-0.003 0,-0.005 0,-0.006 0.007,-0.003 0.0176,0.005 0.0176,0.0117 0.004,0.0195 -0.0157,0.0352 -0.0332,0.0391 -0.0457,0.0104 -0.0782,-0.0326 -0.0879,-0.0723 -0.0151,-0.0894 0.0706,-0.15628 0.15234,-0.16601 0.16518,-0.0193 0.28715,0.1381 0.29883,0.28906 0.0219,0.28446 -0.2491,0.48851 -0.51172,0.5 -0.46498,0.0205 -0.7891,-0.42397 -0.79883,-0.85547 -0.0125,-0.72469 0.68288,-1.22459 1.36133,-1.2207 1.09116,0.006 1.83487,1.05341 1.80859,2.07812 -0.0398,1.58889 -1.57405,2.66044 -3.07617,2.59766 -2.25707,-0.0942 -3.76533,-2.27827 -3.64453,-4.41602 0.093,-1.65014 0.99147,-2.98988 2.25195,-3.86523 z"
       id="rect4664-3" />
  </g>
  <g
     inkscape:groupmode="layer"
     id="layer10"
     inkscape:label="devices"
     style="display:inline"
     transform="translate(-81.0002,-197)" />
  <g
     inkscape:groupmode="layer"
     id="layer11"
     inkscape:label="apps"
     transform="translate(-81.0002,-197)" />
  <g
     inkscape:groupmode="layer"
     id="layer13"
     inkscape:label="places"
     style="display:inline"
     transform="translate(-81.0002,-197)" />
  <g
     inkscape:groupmode="layer"
     id="layer14"
     inkscape:label="mimetypes"
     transform="translate(-81.0002,-197)" />
  <g
     inkscape:groupmode="layer"
     id="layer15"
     inkscape:label="emblems"
     style="display:inline"
     transform="translate(-81.0002,-197)" />
  <g
     inkscape:groupmode="layer"
     id="g71291"
     inkscape:label="emotes"
     style="display:inline"
     transform="translate(-81.0002,-197)" />
  <g
     inkscape:groupmode="layer"
     id="g4953"
     inkscape:label="categories"
     style="display:inline"
     transform="translate(-81.0002,-197)" />
  <g
     inkscape:groupmode="layer"
     id="layer12"
     inkscape:label="actions"
     style="display:inline"
     transform="translate(-81.0002,-197)" />
</svg>
