<?xml version="1.0" encoding="UTF-8" standalone="no"?>
<!-- Created with Inkscape (http://www.inkscape.org/) -->

<svg
   xmlns:dc="http://purl.org/dc/elements/1.1/"
   xmlns:cc="http://creativecommons.org/ns#"
   xmlns:rdf="http://www.w3.org/1999/02/22-rdf-syntax-ns#"
   xmlns:svg="http://www.w3.org/2000/svg"
   xmlns="http://www.w3.org/2000/svg"
   xmlns:sodipodi="http://sodipodi.sourceforge.net/DTD/sodipodi-0.dtd"
   xmlns:inkscape="http://www.inkscape.org/namespaces/inkscape"
   width="296"
   height="296"
   viewBox="0 0 78.316664 78.316667"
   version="1.1"
   id="svg8"
   sodipodi:docname="fractal.svg"
   inkscape:version="0.92.2 (5c3e80d, 2017-08-06)">
  <defs
     id="defs2">
    <clipPath
       clipPathUnits="userSpaceOnUse"
       id="clipPath4538-3">
      <path
         style="color:#000000;clip-rule:nonzero;display:inline;overflow:visible;visibility:visible;opacity:0.4;color-interpolation:sRGB;color-interpolation-filters:linearRGB;fill:#4075b8;fill-opacity:1;fill-rule:nonzero;stroke:none;stroke-width:0.97273529;stroke-linecap:round;stroke-linejoin:round;stroke-miterlimit:4;stroke-dasharray:none;stroke-dashoffset:0;stroke-opacity:1;marker:none;color-rendering:auto;image-rendering:auto;shape-rendering:auto;text-rendering:auto;enable-background:accumulate"
         d="m 111.99793,-162.00055 c -30.470092,0 -55.000163,23.32969 -55.000163,52.3145 v 225.37196 c 0,28.98481 24.530071,52.3145 55.000163,52.3145 h 55.00016 v 82.50024 l 82.50024,-82.50024 h 192.50056 c 30.47009,0 55.00016,-23.32969 55.00016,-52.3145 v -225.37196 c 0,-28.98481 -24.53007,-52.3145 -55.00016,-52.3145 z"
         id="path4540-6"
         inkscape:connector-curvature="0"
         sodipodi:nodetypes="sssscccsssss" />
    </clipPath>
  </defs>
  <sodipodi:namedview
     id="base"
     pagecolor="#ebebeb"
     bordercolor="#666666"
     borderopacity="1.0"
     inkscape:pageopacity="0"
     inkscape:pageshadow="2"
     inkscape:zoom="0.7"
     inkscape:cx="-286.28416"
     inkscape:cy="16.951451"
     inkscape:document-units="px"
     inkscape:current-layer="layer1"
     showgrid="false"
     units="px"
     inkscape:pagecheckerboard="false"
     inkscape:window-width="1600"
     inkscape:window-height="836"
     inkscape:window-x="0"
     inkscape:window-y="27"
     inkscape:window-maximized="1"
     fit-margin-top="0"
     fit-margin-left="0"
     fit-margin-right="0"
     fit-margin-bottom="0" />
  <metadata
     id="metadata5">
    <rdf:RDF>
      <cc:Work
         rdf:about="">
        <dc:format>image/svg+xml</dc:format>
        <dc:type
           rdf:resource="http://purl.org/dc/dcmitype/StillImage" />
        <dc:title></dc:title>
      </cc:Work>
    </rdf:RDF>
  </metadata>
  <g
     inkscape:label="Tavolo 1"
     inkscape:groupmode="layer"
     id="layer1"
     transform="translate(160.86667,-89.264275)">
    <g
       id="g3522">
      <rect
         y="89.264275"
         x="-160.86667"
         height="78.316666"
         width="78.316666"
         id="rect2972"
         style="color:#000000;clip-rule:nonzero;display:inline;overflow:visible;visibility:visible;opacity:1;color-interpolation:sRGB;color-interpolation-filters:linearRGB;fill:#4075b8;fill-opacity:1;fill-rule:nonzero;stroke:none;stroke-width:0.52916664;stroke-linecap:round;stroke-linejoin:round;stroke-miterlimit:4;stroke-dasharray:none;stroke-dashoffset:0;stroke-opacity:1;marker:none;color-rendering:auto;image-rendering:auto;shape-rendering:auto;text-rendering:auto;enable-background:accumulate" />
      <g
         transform="matrix(0.09621184,0,0,0.09621184,-148.35881,127.3402)"
         id="g2980"
         style="display:inline;fill:#ffffff;fill-opacity:1;stroke-width:0.1;enable-background:new">
        <path
           inkscape:connector-curvature="0"
           id="path2974"
           transform="matrix(27.50008,0,0,27.50008,-23730.572,-15562.045)"
           d="m 867,560 c -1.108,0 -2,0.84835 -2,1.90234 v 8.19532 c 0,1.05399 0.892,1.90234 2,1.90234 h 12 c 1.108,0 2,-0.84835 2,-1.90234 v -8.19532 C 881,560.84835 880.108,560 879,560 Z m 0,1 h 12 c 0.554,0 1,0.446 1,1 v 8 c 0,0.554 -0.446,1 -1,1 h -12 c -0.554,0 -1,-0.446 -1,-1 v -8 c 0,-0.554 0.446,-1 1,-1 z"
           style="color:#000000;clip-rule:nonzero;display:inline;overflow:visible;visibility:visible;opacity:1;color-interpolation:sRGB;color-interpolation-filters:linearRGB;fill:#ffffff;fill-opacity:1;fill-rule:nonzero;stroke:none;stroke-width:0.00353721;stroke-linecap:round;stroke-linejoin:round;stroke-miterlimit:4;stroke-dasharray:none;stroke-dashoffset:0;stroke-opacity:1;marker:none;color-rendering:auto;image-rendering:auto;shape-rendering:auto;text-rendering:auto;enable-background:accumulate" />
        <path
           clip-path="url(#clipPath4538-3)"
           inkscape:connector-curvature="0"
           style="color:#000000;clip-rule:nonzero;display:inline;overflow:visible;visibility:visible;opacity:1;color-interpolation:sRGB;color-interpolation-filters:linearRGB;fill:#ffffff;fill-opacity:1;fill-rule:nonzero;stroke:none;stroke-width:0.91780919;stroke-linecap:round;stroke-linejoin:round;stroke-miterlimit:4;stroke-dasharray:none;stroke-dashoffset:0;stroke-opacity:1;marker:none;color-rendering:auto;image-rendering:auto;shape-rendering:auto;text-rendering:auto;enable-background:accumulate"
           d="m 315.63239,-195.46794 2.11467,30.01815 c -81.87256,-5.66785 -165.49308,51.28104 -170.33808,137.244551 -3.32191,58.788118 38.12029,118.831923 100.18989,121.423867 41.30836,1.726535 83.51077,-27.706204 84.60558,-71.400658 0.72273,-28.1797299 -19.73069,-57.001088 -49.7376,-57.169726 -18.65728,-0.107072 -37.76963,13.645784 -37.427,33.5748168 0.26768,11.8662482 9.16269,24.0644192 21.94975,23.5006852 7.22201,-0.315862 14.69295,-5.921078 14.09067,-13.7437543 -0.32122,-4.151447 -3.66721,-8.47929496 -8.20974,-7.94875348 -2.24851,0.26767986 -4.58536,2.13876208 -4.17045,4.59686628 0.26768,1.089457 1.15102,2.272602 2.40912,1.9861845 0.48182,-0.1070719 0.99041,-0.5781885 0.88334,-1.1135482 0,-0.1873759 -0.26768,-0.3801054 -0.45506,-0.2890943 0,0.015526 -0.26768,0.080304 0,0.160608 v 0.013919 -8.03e-4 c -0.003,-8.031e-4 0,0 0,-8.031e-4 v 0.00642 -0.00723 0.1606079 c 0,0.2141439 -0.37475,0.2141439 -0.56212,0.107072 -0.5086,-0.2676799 -0.45506,-0.9636475 -0.26768,-1.3758745 0.6692,-1.0653659 2.1682,-0.9234955 3.09438,-0.2837407 2.06113,1.4481481 1.68638,4.4408089 0.29444,6.1989309 -2.83473,3.585839 -8.26327,2.888265 -11.42725,0.187376 -5.96391,-5.1067971 -4.64692,-14.3444291 0.26768,-19.6747382 8.64071,-9.4279518 23.61472,-7.1371478 32.1537,1.1081947 14.34764,13.8484175 10.56265,37.0758025 -2.70624,50.1835495 -21.33944,21.079521 -56.18332,15.139438 -75.62759,-5.28293 -30.15414,-31.6659919 -21.13332,-82.29496 9.29384,-110.260278 45.73043,-42.021187 117.52485,-28.843047 156.78545,15.067699 C 440.24004,5.727726 421.41144,105.07443 359.50512,158.911 132.79901,346.98207 -94.4826,219.6034 -94.4826,219.6034 l 1.15102,-418.39246 z"
           id="path2976"
           sodipodi:nodetypes="cccscccccccccccccccccccccccccccccccc" />
        <g
           style="display:inline;fill:#ffffff;fill-opacity:1;stroke-width:0.02862928;enable-background:new"
           transform="matrix(3.4920655,0,0,3.4920655,-138.55567,155.81177)"
           id="g2978" />
      </g>
    </g>
  </g>
</svg>
